<?xml version="1.0" encoding="utf-8"?>
<!-- Generator: Adobe Illustrator 24.1.0, SVG Export Plug-In . SVG Version: 6.00 Build 0)  -->
<svg version="1.1" id="Layer_1" xmlns="http://www.w3.org/2000/svg" xmlns:xlink="http://www.w3.org/1999/xlink" x="0px" y="0px"
	 viewBox="0 0 256 256" style="enable-background:new 0 0 256 256;" xml:space="preserve">
<style type="text/css">
	.st0{fill:#19AAD1;}
</style>
<g>
	<path class="st0" d="M7.09,75.14c6.95-2.18,10.98-1.49,19.71,9.77c6.69,8.63,18.44,22.24,23.57,28.15c1.49,1.71,2.11,4,1.75,6.24
		c-1.23,7.82-0.74,26.6,32.38,26.88c32.65,0.27,66.21-1.73,84.6,12.07c4,3,6.79,5.28,8.68,6.91c1.37,1.19,0.53,3.43-1.28,3.43
		h-53.95c0,0-25.17,14.02-47.93,13.22c0,0-15.29-1.49-5.75-6.9c9.54-5.4,20.81-8.85,11.38-8.62c-9.43,0.23-27.65,0.23-40.06-20.63
		S7.09,86,7.09,86S0.14,77.33,7.09,75.14z"/>
	<path class="st0" d="M165.78,150.78c8.85,4.22,19.64,14.7,22.2,17.25c0.37,0.36,0.86,0.57,1.38,0.57h51.14
		c6.67,0,22.99-3.56-1.61-26.09s-41.38-25.86-41.38-25.86c7.36-0.23,35.29-14.6,14.14-15.98s-44.37,13.1-44.37,13.1
		c-45.81-0.54-88.28,2.11-104.36,3.27c-4.33,0.31-7.53,4.19-6.98,8.49c2.22,17.24,22.59,16.17,22.59,16.17s34.14,1.15,51.5,1.15
		S155.66,145.95,165.78,150.78z M96.76,134.59c0,1.62-1.31,2.93-2.93,2.93h-7.82c-1.62,0-2.93-1.31-2.93-2.93v-7.82
		c0-1.62,1.31-2.93,2.93-2.93h7.82c1.62,0,2.93,1.31,2.93,2.93V134.59z M120.78,134.59c0,1.62-1.31,2.93-2.93,2.93h-7.82
		c-1.62,0-2.93-1.31-2.93-2.93v-7.82c0-1.62,1.31-2.93,2.93-2.93h7.82c1.62,0,2.93,1.31,2.93,2.93V134.59z M144.81,134.59
		c0,1.62-1.31,2.93-2.93,2.93h-7.82c-1.62,0-2.93-1.31-2.93-2.93v-7.82c0-1.62,1.31-2.93,2.93-2.93h7.82c1.62,0,2.93,1.31,2.93,2.93
		V134.59z M191.42,135.16c0.33-2.9,2.94-5.02,5.87-5.02h13.64c1.46,0,2.87,0.54,3.96,1.52l11.06,7.9c1.16,0.83,0.57,2.66-0.86,2.66
		c-8.38-0.04-25.44-0.13-27.5-0.19C192.23,141.86,191.21,136.98,191.42,135.16z M177.6,131.66c1.13-0.53,2.48-0.05,3.02,1.08
		l11.02,23.34c0.53,1.13,0.05,2.48-1.08,3.02c-1.13,0.53-2.48,0.05-3.02-1.08l-11.02-23.34C175.98,133.55,176.47,132.2,177.6,131.66
		z M165.9,137.52h-7.82c-1.62,0-2.93-1.31-2.93-2.93v-7.82c0-1.62,1.31-2.93,2.93-2.93h7.82c1.62,0,2.93,1.31,2.93,2.93v7.82
		C168.83,136.21,167.52,137.52,165.9,137.52z"/>
</g>
</svg>
