<?xml version="1.0" encoding="utf-8"?>
<!-- Generator: Adobe Illustrator 24.1.0, SVG Export Plug-In . SVG Version: 6.00 Build 0)  -->
<svg version="1.1" id="Layer_1" xmlns="http://www.w3.org/2000/svg" xmlns:xlink="http://www.w3.org/1999/xlink" x="0px" y="0px"
	 viewBox="0 0 256 256" style="enable-background:new 0 0 256 256;" xml:space="preserve">
<style type="text/css">
	.st0{fill:#373799;}
</style>
<path class="st0" d="M236.11,230.03c-1.38,0-2.5-1.13-2.49-2.51c0.02-5.08,0.06-9.82-0.06-14.54c-0.07-2.75,0.74-4.32,3.26-5.85
	c12.42-7.56,14.52-23.06,5.08-34.11c-1.13-1.32-1.92-3.85-1.77-5.58c0.47-5.46-0.9-9.98-4.9-13.83c-1.15-1.1-1.95-2.83-2.33-4.41
	c-0.96-4.03-3.15-6.62-7.41-6.62c-4.19,0-6.57,2.36-7.5,6.49c-0.35,1.58-1.17,3.31-2.31,4.43c-4.09,4.01-5.82,8.6-4.92,14.34
	c0.23,1.49-0.48,3.64-1.45,4.79c-10.46,12.41-7.69,27.5,6.65,35.68c1.11,0.63,2.54,1.97,2.57,3.02c0.19,5.36,0.15,10.73,0.13,16.21
	c-0.01,1.37-1.12,2.49-2.49,2.49h-18.58c-1.37,0-2.49-1.13-2.49-2.5c0-0.62,0-1.23,0-1.85c0-47.36,0.01-94.71,0.01-142.07
	c0-21.62,0.01-43.23-0.02-64.85c-0.01-6.5-2.43-9.59-7.96-9.62c-19.64-0.11-39.27-0.06-58.91-0.02c-3.96,0.01-6.98,2.03-7.37,5.92
	c-0.35,3.48-0.28,8.34-0.2,11.94c0.06,2.84,2.44,5.18,5.29,5.18l6.22,0.01c27.5,0,24.82,3.36,24.82,26.18
	c0,56.76,0.17,111.19,0.16,167.95c0,0.44-0.01,0.88-0.02,1.33c-0.05,1.34-1.16,2.39-2.49,2.39h-9.74c-1.34,0-2.44-1.1-2.44-2.44
	v-0.02c-0.02-46.37-0.02-92.73-0.02-139.1c0-11.39,0.08-22.77-0.05-34.16c-0.06-5.44-2.66-8.43-7.6-8.45
	c-22.27-0.11-44.55-0.11-66.83,0c-4.63,0.02-7.14,2.85-7.44,7.54c-0.12,1.81-0.07,3.63-0.07,5.44
	c0.01,54.29,0.02,108.57,0.03,162.86c0,1.93,0,3.87,0,5.82c0,1.37-1.12,2.5-2.49,2.5H41.29c-1.37,0-2.49-1.11-2.49-2.49
	c-0.03-5.54-0.08-10.86,0.13-16.16c0.06-1.42,1.24-3.29,2.47-4.09c13.22-8.62,15.42-23.27,5.29-35.21c-0.98-1.16-1.65-3.2-1.42-4.66
	c0.92-5.74-0.81-10.31-4.88-14.33c-1.13-1.11-1.98-2.81-2.31-4.38c-0.88-4.12-3.24-6.62-7.38-6.67c-4.17-0.05-6.55,2.5-7.52,6.54
	c-0.35,1.46-0.87,3.18-1.91,4.11c-4.48,4.02-6.02,8.87-5.27,14.78c0.18,1.41-0.39,3.43-1.32,4.51
	c-10.67,12.44-7.87,27.88,6.54,35.89c1.1,0.61,2.53,1.93,2.57,2.97c0.18,5.46,0.15,10.94,0.13,16.68c0,1.37-1.12,2.49-2.49,2.49
	h-4.99c-4.66,0-8.44,3.78-8.44,8.44l0,0c0,4.66,3.78,8.44,8.44,8.44h223.12c4.66,0,8.44-3.78,8.44-8.44l0,0
	c0-4.66-3.78-8.44-8.44-8.44L236.11,230.03z M128.23,113.51c0,7.44,0,7.44-8.92,7.46c-5.94,0.01-5.94,0.01-5.95-7.48
	c0-7.42,0-7.51,5.96-7.39C128.5,106.29,128.22,104.27,128.23,113.51z M118.52,68.5c10.62,0.03,9.24-0.84,9.39,7.46
	c0.15,3.95,1.11,7.92-5.5,7.57c-9.31-0.5-9.34-0.1-9.37-5.65C112.98,68.52,112.98,68.48,118.52,68.5z M112.83,150.34
	c0.02-8.76-0.39-6.96,8.95-7.54c5.43-0.34,6.22,2.04,6.06,6.62c-0.3,8.38-0.09,8.39-7.62,8.39
	C112.83,157.81,112.82,157.81,112.83,150.34z M85.3,120.97c-9.6,0.07-9.63,0.07-9.61-5.83c0.03-10.23-0.82-8.9,7.3-9.06
	c7.55-0.04,7.55-0.04,7.58,5.77C90.61,120.93,90.61,120.93,85.3,120.97z M90.58,150.1c0,7.29,0,7.29-7.59,7.29
	c-7.31,0-7.31,0-7.32-8.63c0-6.32,0-6.32,6.66-6.32C90.58,142.44,90.58,142.44,90.58,150.1z M75.41,77.41
	c0.44-9.51-1.75-8.91,8.5-8.92c6.46-0.01,6.46,0.01,6.45,7.93c0.02,8.7,0.01,6.45-9.44,7.07C75.86,83.83,75.21,81.55,75.41,77.41z
	 M83.26,221.76c-0.01-11.87,0.08-23.74-0.07-35.6c-0.06-4.21,1.5-5.98,5.8-5.88c8.57,0.18,17.14,0.1,25.71,0.03
	c3.3-0.03,5.45,0.93,5.44,4.68c-0.02,14.01-0.01,28.02-0.01,42.54c0,1.38-1.12,2.5-2.49,2.5H85.76c-1.38,0-2.49-1.12-2.49-2.5
	C83.26,225.59,83.26,223.68,83.26,221.76z"/>
</svg>
