<?xml version="1.0" encoding="utf-8"?>
<!-- Generator: Adobe Illustrator 24.1.0, SVG Export Plug-In . SVG Version: 6.00 Build 0)  -->
<svg version="1.1" id="Layer_1" xmlns="http://www.w3.org/2000/svg" xmlns:xlink="http://www.w3.org/1999/xlink" x="0px" y="0px"
	 viewBox="0 0 256 256" style="enable-background:new 0 0 256 256;" xml:space="preserve">
<style type="text/css">
	.st0{fill:#EA003D;}
</style>
<g>
	<path class="st0" d="M88.01,178.29c-1.38-0.26-2.74-0.65-4.2-1c0-1.67,0.15-2.99-0.03-4.26c-0.69-5.03,0.72-8.61,4.99-12.07
		c7.71-6.25,11.3-15.03,11.54-24.98c0.17-7.34-0.04-14.69,0.11-22.03c0.04-1.85,0.38-3.99,1.37-5.47c5.61-8.38,4.63-17.58,4.2-27.11
		c-16.23,0-32.04-0.01-47.85,0c-17.2,0.01-28.44,11.27-28.46,28.54c-0.01,8,0.13,16,0.03,23.99c-0.15,12.1,4.58,21.79,13.92,29.4
		c1.14,0.93,2.4,2.4,2.55,3.73c0.36,3.35,0.12,6.77,0.12,10.31c-1.62,0.36-2.87,0.68-4.13,0.92c-18.25,3.48-31.82,18.27-33.11,36.85
		c-0.62,8.94-0.38,17.95-0.21,26.92c0.09,4.98,3.15,7.9,8.13,7.91c31.99,0.07,63.98,0.07,95.97-0.01c5.26-0.01,8.15-2.97,8.23-8.26
		c0.13-8.48,0.28-16.98-0.07-25.46C120.3,197.35,106.58,181.82,88.01,178.29z M38.46,137.03c-0.26-4.67-0.04-9.37-0.04-14.1
		c18.08-2.34,35.97,3.03,52.99-4.56c0,7.2,0.7,14.26-0.15,21.12c-1.67,13.48-13.88,22.92-27.73,22.32
		C50.24,161.23,39.2,150.42,38.46,137.03z M71.41,186.15c-3.52,2.77-7.63,2.97-11.47,0.84c-7.18-3.97-4.66-10.89-5.11-17.41
		c3.91,0.33,7.12,0.82,10.34,0.82c3.06,0,6.13-0.5,9.99-0.86C74.6,175.36,77.2,181.59,71.41,186.15z"/>
	<path class="st0" d="M231.27,185.9c5.91-9.97,6.04-20.28,4.5-31.08c-1.96-13.86-3.27-27.82-4.56-41.77
		c-1.71-18.52-16.3-31.99-34.66-31.67c-18.03,0.31-32.06,14.69-33.12,33.34c-0.57,10.07-1.73,20.12-2.99,30.13
		c-1.76,13.87-5.48,27.79,3.14,41.04c-12.99,8.92-16.9,21.4-16.15,36.04c0.35,6.84,0.04,13.7,0.1,20.56
		c0.05,5.86,1.68,7.49,7.63,7.49c28.23,0.02,56.46,0.02,84.69,0c5.67-0.01,7.33-1.64,7.38-7.22c0.07-7.67-0.23-15.35,0.08-23.01
		C247.86,205.87,243.32,194.48,231.27,185.9z M203.13,187.92c-3.7,2.49-7.82,2.51-11.5-0.02c-6.27-4.31-4.41-10.79-4.54-16.36
		c7.06,0,13.61,0,20.61,0C207.56,177.14,209.49,183.65,203.13,187.92z M220.7,142.87c-1.17,11.87-11.92,21.02-23.88,20.72
		c-12.04-0.3-22.14-9.86-22.87-21.84c-0.26-4.21-0.04-8.45-0.04-11.33c3.45-3.87,6.14-6.9,9.19-10.32
		c2.89,5.08,5.95,8.72,13.02,8.66c7.11-0.07,10.25-3.57,13.3-9.14c3.93,3.38,4.69,9.74,11.35,8.88
		C220.77,133.48,221.15,138.22,220.7,142.87z"/>
	<path class="st0" d="M171.27,11.85c-9.46-8.17-23.76-7.78-32.76,1.15c-0.04,0.04-0.1,0.04-0.14,0c-9.01-8.94-23.3-9.32-32.76-1.15
		C94.8,21.18,94.68,37.6,104.77,47.7l26.74,26.74c3.83,3.83,10.03,3.83,13.85,0L172.1,47.7C182.21,37.6,182.08,21.18,171.27,11.85z"
		/>
</g>
</svg>
