<?xml version="1.0" encoding="utf-8"?>
<!-- Generator: Adobe Illustrator 24.1.0, SVG Export Plug-In . SVG Version: 6.00 Build 0)  -->
<svg version="1.1" id="Layer_1" xmlns="http://www.w3.org/2000/svg" xmlns:xlink="http://www.w3.org/1999/xlink" x="0px" y="0px"
	 viewBox="0 0 256 256" style="enable-background:new 0 0 256 256;" xml:space="preserve">
<style type="text/css">
	.st0{fill:#C95100;}
</style>
<g>
	<path class="st0" d="M209.61,122.17c-26.1-19.95-52.08-40.05-78.11-60.09c-0.01-0.01-0.02-0.02-0.04-0.03
		c-2.06-1.58-4.97-1.49-7.03,0.09c-26.54,20.47-52.82,40.7-78.98,61.09c-1.43,1.12-2.31,3.73-2.37,5.68
		c-0.25,8.42-0.1,16.86-0.1,25.29c0.01,25.81-0.03,51.61,0.05,77.42c0.02,8.53,4.82,14.78,12.42,15
		c12.36,0.35,24.73,0.19,37.54,0.13c3.55-0.01,6.42-2.9,6.41-6.45c-0.02-14.17-0.07-27.92,0.03-41.66
		c0.12-17.03,12.31-29.58,28.54-29.62c16.25-0.04,28.46,12.43,28.62,29.5c0.14,13.93,0.02,27.87,0.02,41.8v0.06
		c0,3.55,2.88,6.43,6.43,6.44c11.71,0.01,23.03,0.03,34.35-0.02c10.18-0.04,15.6-5.4,15.62-15.61c0.06-33.89,0-67.78,0.11-101.67
		C213.15,126.3,212.25,124.19,209.61,122.17z M128.14,146.77c-14.37,0.05-25.97-11.6-25.83-25.93
		c0.13-14.04,11.86-25.58,25.86-25.46c14.1,0.12,25.6,11.7,25.58,25.75C153.74,135.23,142.26,146.72,128.14,146.77z"/>
	<path class="st0" d="M242.09,92.94c-34.2-26.33-68.33-52.74-102.51-79.09c-8.08-6.23-14.96-6.24-23.01-0.06
		c-16.76,12.9-33.48,25.85-50.22,38.78c-17.7,13.66-35.43,27.27-53.08,40.98c-8.08,6.28-9.56,16.14-3.78,23.62
		c5.61,7.26,15.35,8.35,23.5,2.62c1.12-0.79,2.2-1.65,3.29-2.49c27.92-21.52,55.83-43.05,83.75-64.57c6.48-4.99,9.55-4.99,16.03,0
		C153.9,66.48,171.73,80.25,189.57,94c11.3,8.72,22.56,17.49,33.93,26.12c5.41,4.11,11.43,4.7,17.48,1.65
		c5.85-2.95,8.84-7.94,9.03-13.69C249.97,101.02,246.87,96.62,242.09,92.94z"/>
	<path class="st0" d="M181.19,33.16c8.57,6.59,17.24,13.26,26.5,20.38c2.2,1.69,5.4,0.12,5.4-2.66c0-2.65,0-5.05-0.01-7.45
		c-0.01-1.99,0.04-3.98-0.04-5.97c-0.36-8.97-6.9-16.72-15.82-17.73c-7.05-0.8-13.48,2.69-16.95,9.19
		C179.51,30.37,179.9,32.17,181.19,33.16z"/>
	<path class="st0" d="M128.04,105.55c-8.37-0.04-15.47,7.01-15.53,15.42c-0.07,8.71,7.03,15.74,15.77,15.63
		c8.47-0.1,15.33-7.12,15.27-15.61C143.48,112.54,136.49,105.59,128.04,105.55z"/>
</g>
</svg>
