<?xml version="1.0" encoding="utf-8"?>
<!-- Generator: Adobe Illustrator 24.1.0, SVG Export Plug-In . SVG Version: 6.00 Build 0)  -->
<svg version="1.1" id="Layer_1" xmlns="http://www.w3.org/2000/svg" xmlns:xlink="http://www.w3.org/1999/xlink" x="0px" y="0px"
	 viewBox="0 0 256 256" style="enable-background:new 0 0 256 256;" xml:space="preserve">
<style type="text/css">
	.st0{fill:#009E4B;}
</style>
<g>
	<path class="st0" d="M138.89,64.81c-5.34-8.38-6.23-16.68-5.21-26.62c9.39,0,18.47-0.03,27.54,0.01c4.55,0.02,6.68-2.15,6.63-6.68
		c-0.07-6.12,0.02-12.25-0.05-18.37c-0.06-5.46-1.68-7.08-7.14-7.11C150.73,5.98,140.8,6,130.87,6.03
		c-6.24,0.02-7.65,1.38-7.67,7.52c-0.04,12.58,0.08,25.16-0.13,37.74c-0.04,2.49-0.81,5.24-2.08,7.38
		c-11.33,19.05-22.86,37.98-34.31,56.95c-4.62,7.65-9.3,15.25-13.77,22.98c-2.69,4.65-0.64,8.13,4.71,8.44
		c1.16,0.07,2.32,0.04,3.48,0.04c31.94,0,63.89,0.06,95.83-0.13c2.46-0.01,4.69,0.22,6.83-2.41c1.35-1.66,0.03-5.53-1.18-7.57
		C168.19,112.8,154,88.51,138.89,64.81z M127.79,117.36c-4.89-0.21-8.57-4.11-8.56-9.05c0.02-5.05,4.15-9.09,9.16-8.96
		c5.06,0.13,8.96,4.25,8.84,9.34C137.11,113.68,132.86,117.58,127.79,117.36z"/>
	<path class="st0" d="M170.17,157.55h-84.3c-0.27,0-0.54,0.03-0.8,0.08c-0.52,0.11-1,0.31-1.42,0.6c-0.21,0.14-0.41,0.31-0.59,0.49
		c-0.36,0.36-0.65,0.79-0.85,1.26c-0.2,0.48-0.31,1-0.31,1.55v55.56v27.65c0,2.91,2.36,5.28,5.28,5.28h14.72
		c2.87,0,5.23-2.35,5.23-5.23v-0.05c0-11.75-0.04-23.5,0.01-35.25c0.05-9.65,5.02-17.3,12.54-20.52c0.46-0.19,0.93-0.36,1.41-0.52
		c0.14-0.05,0.28-0.11,0.42-0.15c1.82-0.57,3.77-0.88,5.82-0.95c0.23-0.01,0.46-0.03,0.7-0.03s0.47,0.02,0.7,0.03
		c2.05,0.07,4,0.38,5.82,0.95c0.14,0.05,0.28,0.1,0.42,0.15c0.48,0.16,0.95,0.33,1.41,0.52c7.52,3.22,12.5,10.87,12.54,20.52
		c0.06,11.75,0.01,23.5,0.01,35.25v0.05c0,2.87,2.35,5.23,5.23,5.23h14.72c2.91,0,5.28-2.36,5.28-5.28v-83.2
		C174.15,159.33,172.37,157.55,170.17,157.55z"/>
	<path class="st0" d="M25.28,136.93c11.76,0.01,23.11,0.05,34.45-0.13c1.33-0.02,3.09-1.55,3.86-2.85
		c6.48-10.95,12.75-22.03,19.13-33.04c2.03-3.51,4.1-7.01,6.3-10.7c1.72-2.9-0.38-6.58-3.75-6.58c-15.94,0.01-31.21,0.03-46.48-0.03
		c-4.31-0.02-6.06,2.26-7.03,6.13c-3.46,13.95-7.13,27.85-10.7,41.78c0,0.02-0.01,0.03-0.01,0.05
		C20.36,134.28,22.47,136.92,25.28,136.93z"/>
	<path class="st0" d="M163.63,83.7c3.69,6.25,6.96,11.7,10.14,17.2c6.38,11.01,12.65,22.09,19.13,33.04
		c0.77,1.3,2.53,2.83,3.86,2.85c11.35,0.18,22.69,0.15,34.45,0.13c2.81,0,4.92-2.64,4.23-5.37c0-0.02-0.01-0.03-0.01-0.05
		c-3.57-13.93-7.23-27.83-10.7-41.78c-0.96-3.87-2.72-6.15-7.03-6.13c-17.66,0.07-35.33,0.03-54.03,0.03
		C163.64,83.62,163.61,83.67,163.63,83.7z"/>
	<path class="st0" d="M51.62,147.06c-2.48-0.01-4.95-0.01-7.43-0.01c-6.93,0-13.87,0-20.89,0c-2.39,0-4.36,1.96-4.36,4.35v11.75
		c0,2.4,1.95,4.35,4.35,4.35c12.31,0,46.59,0,48.02,0c0.03,0,0.05-0.02,0.05-0.05c0.31-6.04-0.2-10.14-4.83-15.03
		C61.66,147.28,57.21,147.08,51.62,147.06z"/>
	<path class="st0" d="M206.28,147.05c-6.21-0.01-11.42-0.19-16.79,5.69c-4.58,5.02-4.81,9.05-4.46,14.71c0,0.03,0.02,0.05,0.05,0.05
		h47.88c2.4,0,4.35-1.95,4.35-4.35V151.4c0-2.39-1.96-4.35-4.36-4.35C223.9,147.05,215.09,147.06,206.28,147.05z"/>
	<path class="st0" d="M67.29,177.85H22.47c-2.19,0-3.97,1.78-3.97,3.97v62.9c0,2.91,2.36,5.28,5.28,5.28H66
		c2.91,0,5.28-2.36,5.28-5.28v-62.9C71.27,179.63,69.49,177.85,67.29,177.85z M36.65,217.86h-1.62c-2.67,0-5.07-1.95-5.3-4.61
		c-0.26-3,2.1-5.51,5.04-5.51h1.62c2.67,0,5.07,1.95,5.3,4.61C41.95,215.35,39.59,217.86,36.65,217.86z M36.65,199.56h-1.62
		c-2.67,0-5.07-1.95-5.3-4.61c-0.26-3,2.1-5.51,5.04-5.51h1.62c2.67,0,5.07,1.95,5.3,4.61C41.95,197.04,39.59,199.56,36.65,199.56z
		 M55.4,217.86h-1.62c-2.67,0-5.07-1.95-5.3-4.61c-0.26-3,2.1-5.51,5.04-5.51h1.62c2.67,0,5.07,1.95,5.3,4.61
		C60.69,215.35,58.34,217.86,55.4,217.86z M55.4,199.56h-1.62c-2.67,0-5.07-1.95-5.3-4.61c-0.26-3,2.1-5.51,5.04-5.51h1.62
		c2.67,0,5.07,1.95,5.3,4.61C60.69,197.04,58.34,199.56,55.4,199.56z"/>
	<path class="st0" d="M233.53,177.85h-44.82c-2.19,0-3.97,1.78-3.97,3.97v62.9c0,2.91,2.36,5.28,5.28,5.28h42.22
		c2.91,0,5.28-2.36,5.28-5.28v-62.9C237.5,179.63,235.72,177.85,233.53,177.85z M202.89,217.86h-1.62c-2.67,0-5.07-1.95-5.3-4.61
		c-0.26-3,2.1-5.51,5.04-5.51h1.62c2.67,0,5.07,1.95,5.3,4.61C208.19,215.35,205.83,217.86,202.89,217.86z M202.89,199.56h-1.62
		c-2.67,0-5.07-1.95-5.3-4.61c-0.26-3,2.1-5.51,5.04-5.51h1.62c2.67,0,5.07,1.95,5.3,4.61
		C208.19,197.04,205.83,199.56,202.89,199.56z M221.63,217.86h-1.62c-2.67,0-5.07-1.95-5.3-4.61c-0.26-3,2.1-5.51,5.04-5.51h1.62
		c2.67,0,5.07,1.95,5.3,4.61C226.93,215.35,224.57,217.86,221.63,217.86z M221.63,199.56h-1.62c-2.67,0-5.07-1.95-5.3-4.61
		c-0.26-3,2.1-5.51,5.04-5.51h1.62c2.67,0,5.07,1.95,5.3,4.61C226.93,197.04,224.57,199.56,221.63,199.56z"/>
</g>
</svg>
